<svg viewBox="0 0 170 85" fill="none" xmlns="http://www.w3.org/2000/svg">
        <path
          d="M2.37657 41.9375L2.53825 32.4069C2.54333 32.0631 2.63787 31.7266 2.81263 31.4301C2.98738 31.1336 3.23637 30.8874 3.53523 30.7156L22.7744 18.0707C23.0664 17.8927 23.4021 17.7986 23.7444 17.7986C24.0867 17.7986 24.4224 17.8927 24.7144 18.0707L32.7981 22.7152C33.0939 22.8916 33.3388 23.1413 33.5088 23.4401C33.6789 23.7389 33.7682 24.0765 33.7682 24.42C33.7682 24.7634 33.6789 25.1011 33.5088 25.3998C33.3388 25.6986 33.0939 25.9484 32.7981 26.1248L5.39448 43.602C5.10331 43.8219 4.75433 43.9527 4.38994 43.9787C4.02555 44.0047 3.66144 43.9247 3.34182 43.7484C3.0222 43.5721 2.76085 43.3071 2.5895 42.9857C2.41814 42.6642 2.34418 42.3001 2.37657 41.9375Z"
          fill="url(#paint0_linear_98_6)" />
        <path
          d="M3.07746 57.4818L11.3231 52.7031C11.6131 52.5303 11.8543 52.2868 12.0239 51.9957C12.1936 51.7045 12.2863 51.3752 12.2931 51.0386V11.6274C12.2935 11.2825 12.2013 10.9438 12.026 10.6464C11.8506 10.349 11.5987 10.1037 11.2961 9.93604L3.21219 5.211C2.91421 4.96827 2.5513 4.81798 2.16843 4.77873C1.78555 4.73948 1.39953 4.813 1.05818 4.99019C0.716839 5.16737 0.435167 5.44044 0.248062 5.77555C0.0609578 6.11067 -0.0233576 6.49311 0.00556104 6.8755V55.7905C0.0185215 56.1422 0.122575 56.4846 0.307612 56.7844C0.492649 57.0842 0.752376 57.3312 1.06156 57.5014C1.37074 57.6716 1.71886 57.7593 2.07209 57.7559C2.42533 57.7524 2.77167 57.658 3.07746 57.4818Z"
          fill="url(#paint1_linear_98_6)" />
        <path
          d="M1.13687 4.86198L9.46305 0.271166C9.7602 0.0937232 10.1001 0 10.4466 0C10.793 0 11.1329 0.0937232 11.4301 0.271166L32.9865 13.1845C33.2811 13.3633 33.5234 13.6162 33.6889 13.9178C33.8544 14.2194 33.9375 14.5591 33.9296 14.9027V24.4065C33.9053 24.7583 33.7911 25.098 33.5978 25.3935C33.4045 25.6889 33.1386 25.9301 32.8254 26.0942C32.5121 26.2584 32.1619 26.3399 31.8081 26.3311C31.4543 26.3224 31.1086 26.2236 30.8039 26.0441L1.05603 8.27153C0.757347 8.09355 0.511404 7.8398 0.343303 7.53618C0.175202 7.23256 0.0909627 6.88994 0.0991815 6.54328C0.1074 6.19663 0.207783 5.85835 0.390086 5.56298C0.572388 5.2676 0.830082 5.02571 1.13687 4.86198Z"
          fill="url(#paint2_linear_98_6)" />
        <path
          d="M53.3048 40.0851H52.4695L46.3796 28.3799H38.8076L49.5323 48.2465V57.6698H56.242V48.2465L66.9397 28.3799H59.3947L53.3048 40.0851Z"
          fill="black" />
        <path
          d="M109.136 28.3799H101.16L95.9055 37.1588H95.0702L89.8157 28.3799H81.8395L91.0821 42.6087L81.2197 57.6698H89.1689L95.0702 48.2465H95.9055L101.78 57.6698H109.756L99.8936 42.6087L109.136 28.3799Z"
          fill="black" />
        <path d="M130.962 28.3799H124.252V57.6698H130.962V28.3799Z" fill="black" />
        <path
          d="M167.069 43.3067C165.249 41.7931 163.015 40.8579 160.655 40.622L156.29 39.6824C155.334 39.5337 154.418 39.196 153.596 38.6891C153.337 38.4794 153.132 38.2123 152.996 37.9092C152.861 37.6061 152.798 37.2755 152.814 36.944C152.807 36.509 152.907 36.0789 153.104 35.6908C153.301 35.3026 153.59 34.968 153.946 34.7157C154.917 34.0741 156.07 33.7633 157.233 33.8298C158.61 33.7505 159.969 34.17 161.06 35.011C161.508 35.368 161.87 35.8216 162.117 36.3377C162.364 36.8538 162.491 37.4191 162.488 37.991H168.955C169.004 36.6212 168.747 35.2577 168.202 33.9993C167.656 32.7408 166.837 31.6192 165.802 30.7155C163.293 28.7778 160.159 27.8228 156.991 28.0309C154.076 27.8816 151.204 28.7874 148.907 30.5813C147.961 31.3667 147.204 32.3531 146.691 33.4681C146.179 34.583 145.923 35.7982 145.943 37.0245C145.86 38.9934 146.546 40.9177 147.856 42.3939C149.471 43.8824 151.518 44.8224 153.703 45.0786L158.338 45.9109C159.502 46.0812 160.615 46.5027 161.599 47.1458C161.896 47.3666 162.136 47.6545 162.3 47.9858C162.464 48.3172 162.547 48.6825 162.542 49.0519C162.538 49.5036 162.42 49.9471 162.199 50.3413C161.977 50.7355 161.66 51.0677 161.275 51.3071C160.136 51.9749 158.821 52.2838 157.503 52.193C156.057 52.2956 154.622 51.8763 153.461 51.0118C153.006 50.6547 152.64 50.1974 152.392 49.6756C152.144 49.1539 152.021 48.582 152.033 48.0049H145.242C145.209 49.3711 145.484 50.7274 146.049 51.9729C146.613 53.2185 147.452 54.3214 148.503 55.1999C151.02 57.216 154.198 58.23 157.422 58.0456C160.522 58.2453 163.593 57.352 166.099 55.522C167.077 54.7524 167.863 53.768 168.396 52.6456C168.929 51.5233 169.194 50.2933 169.171 49.0519C169.255 46.936 168.5 44.872 167.069 43.3067Z"
          fill="black" />
        <path
          d="M8.76345 77.107H0.00585938V69.5898H10.7844V71.5765H2.08074V75.2008H10.7844V83.2549H0.00585938V81.2951H8.76345V77.107Z"
          fill="#6680E4" />
        <path
          d="M30.9929 83.5768C29.5528 83.5822 28.1435 83.1616 26.9435 82.3683C25.7435 81.575 24.8068 80.4448 24.252 79.1208C23.6972 77.7967 23.5493 76.3384 23.827 74.9306C24.1046 73.5227 24.7954 72.2286 25.8119 71.2122C26.8283 70.1958 28.1246 69.5027 29.5366 69.2209C30.9487 68.939 32.4129 69.0809 33.7439 69.6288C35.075 70.1766 36.2128 71.1057 37.0135 72.2983C37.8141 73.4909 38.2415 74.8934 38.2415 76.3282C38.2415 78.246 37.4787 80.0857 36.1201 81.4443C34.7615 82.8029 32.9178 83.5697 30.9929 83.5768ZM27.3282 79.9794C27.8049 80.4661 28.375 80.8524 29.0046 81.1153C29.6341 81.3782 30.3103 81.5123 30.9929 81.5096C31.6796 81.5128 32.36 81.3791 32.994 81.1163C33.628 80.8535 34.2028 80.4669 34.6846 79.9794C35.6522 79.0087 36.1952 77.6962 36.1952 76.3282C36.1952 74.9602 35.6522 73.6477 34.6846 72.677C34.2028 72.1895 33.628 71.8029 32.994 71.5401C32.36 71.2773 31.6796 71.1436 30.9929 71.1467C29.9622 71.1388 28.9526 71.4377 28.0936 72.0053C27.2346 72.5728 26.5653 73.383 26.1715 74.332C25.7777 75.2811 25.6775 76.3256 25.8836 77.3318C26.0897 78.338 26.5927 79.2599 27.3282 79.9794Z"
          fill="#6680E4" />
        <path d="M53.3039 75.3887H60.2561V77.3753H53.3039V83.2548H51.3369V69.8314H60.2561V71.818H53.3039V75.3887Z"
          fill="#6680E4" />
        <path d="M78.8219 71.5766V83.2549H76.8278V71.7108H73.2979V69.7241H82.3519V71.7108L78.8219 71.5766Z"
          fill="#6680E4" />
        <defs>
          <linearGradient id="paint0_linear_98_6" x1="2.37657" y1="30.8498" x2="33.6873" y2="30.8498"
            gradientUnits="userSpaceOnUse">
            <stop stop-color="#3840DD" />
            <stop offset="1" stop-color="#8478E5" />
          </linearGradient>
          <linearGradient id="paint1_linear_98_6" x1="23.449" y1="-15.0584" x2="-3.13752" y2="53.0384"
            gradientUnits="userSpaceOnUse">
            <stop offset="0.27" stop-color="#3840DD" />
            <stop offset="1" stop-color="#6680E7" />
          </linearGradient>
          <linearGradient id="paint2_linear_98_6" x1="0.112938" y1="13.1845" x2="33.8488" y2="13.1845"
            gradientUnits="userSpaceOnUse">
            <stop stop-color="#6680E7" />
            <stop offset="1" stop-color="#8478E7" />
          </linearGradient>
        </defs>
      </svg>